<svg width="29" height="32" fill="none" xmlns="http://www.w3.org/2000/svg"><g clip-path="url(#clip0_53_511)" stroke="#616467" stroke-width="2" stroke-linecap="round" stroke-linejoin="round"><path d="M10.77 29.333c.66 0 1.196-.597 1.196-1.333s-.536-1.334-1.197-1.334c-.66 0-1.196.598-1.196 1.334 0 .736.535 1.333 1.196 1.333zm13.161 0c.661 0 1.197-.597 1.197-1.333s-.536-1.334-1.197-1.334c-.66 0-1.196.598-1.196 1.334 0 .736.536 1.333 1.197 1.333zm-22.735-28h4.787L9.19 19.188a2.74 2.74 0 00.846 1.558c.438.392.985.6 1.547.588h11.63a2.242 2.242 0 001.547-.588c.438-.393.737-.944.847-1.558L27.52 8H7.18"/></g><defs><clipPath id="clip0_53_511"><path fill="#fff" d="M0 0h28.718v32H0z"/></clipPath></defs></svg>