<svg width="101" height="30" fill="none" xmlns="http://www.w3.org/2000/svg"><path d="M14.72 4.768a1.303 1.303 0 01-.336.4.742.742 0 01-.448.128c-.192 0-.41-.085-.656-.256a9.586 9.586 0 00-.928-.592 6.276 6.276 0 00-1.312-.592c-.512-.181-1.125-.272-1.84-.272-.672 0-1.264.09-1.776.272-.501.17-.923.41-1.264.72a3 3 0 00-.784 1.072c-.17.405-.256.848-.256 1.328 0 .619.155 1.13.464 1.536.32.405.736.752 1.248 1.04a9.744 9.744 0 001.744.752c.65.213 1.317.437 2 .672.683.224 1.35.485 2 .784.65.299 1.232.677 1.744 1.136a4.983 4.983 0 011.232 1.664c.32.65.48 1.45.48 2.4a7.637 7.637 0 01-.528 2.848A6.6 6.6 0 0114 22.128c-.661.661-1.477 1.184-2.448 1.568-.96.373-2.053.56-3.28.56-.736 0-1.45-.075-2.144-.224a10.542 10.542 0 01-1.968-.592c-.619-.267-1.2-.581-1.744-.944a9.03 9.03 0 01-1.44-1.248l.976-1.632c.096-.128.208-.235.336-.32a.868.868 0 01.464-.128c.224 0 .48.117.768.352.299.235.661.496 1.088.784.437.277.955.533 1.552.768.608.235 1.344.352 2.208.352.704 0 1.333-.09 1.888-.272.555-.192 1.019-.459 1.392-.8a3.51 3.51 0 00.88-1.264c.203-.49.304-1.035.304-1.632 0-.672-.155-1.221-.464-1.648a3.782 3.782 0 00-1.232-1.072A9.026 9.026 0 009.392 14l-2-.624c-.683-.224-1.35-.48-2-.768a6.592 6.592 0 01-1.744-1.12 5.208 5.208 0 01-1.232-1.744c-.31-.704-.464-1.568-.464-2.592a6.14 6.14 0 011.872-4.416c.619-.597 1.376-1.072 2.272-1.424.896-.363 1.92-.544 3.072-.544 1.29 0 2.475.208 3.552.624a8.14 8.14 0 012.832 1.76l-.832 1.616zm7.717 5.04a8.944 8.944 0 012.256-1.68c.832-.427 1.787-.64 2.864-.64.896 0 1.68.15 2.352.448A4.63 4.63 0 0131.621 9.2c.459.533.805 1.179 1.04 1.936.235.757.352 1.595.352 2.512V24h-3.136V13.648c0-1.163-.267-2.064-.8-2.704-.533-.65-1.35-.976-2.448-.976-.8 0-1.552.192-2.256.576a7.396 7.396 0 00-1.936 1.536V24h-3.12V.384h3.12v9.424zm21.714-2.32c1.195 0 2.272.197 3.232.592.97.384 1.792.944 2.464 1.68.683.725 1.206 1.605 1.568 2.64.363 1.024.544 2.176.544 3.456 0 1.28-.181 2.437-.544 3.472-.362 1.035-.885 1.915-1.568 2.64a6.798 6.798 0 01-2.464 1.68c-.96.384-2.037.576-3.232.576-1.205 0-2.293-.192-3.264-.576a6.983 6.983 0 01-2.464-1.68c-.682-.725-1.21-1.605-1.584-2.64-.362-1.035-.544-2.192-.544-3.472 0-1.28.182-2.432.544-3.456.374-1.035.902-1.915 1.584-2.64a6.714 6.714 0 012.464-1.68c.97-.395 2.059-.592 3.264-.592zm0 14.304c1.536 0 2.683-.517 3.44-1.552.758-1.035 1.136-2.49 1.136-4.368 0-1.877-.378-3.333-1.136-4.368-.757-1.045-1.904-1.568-3.44-1.568-1.557 0-2.72.523-3.488 1.568-.757 1.035-1.136 2.49-1.136 4.368 0 1.877.379 3.333 1.136 4.368.768 1.035 1.93 1.552 3.488 1.552zM58.562 20c.512.672 1.061 1.141 1.648 1.408.597.267 1.264.4 2 .4 1.43 0 2.533-.512 3.312-1.536.79-1.035 1.184-2.539 1.184-4.512 0-1.035-.09-1.915-.272-2.64-.17-.736-.427-1.333-.768-1.792-.33-.47-.741-.81-1.232-1.024-.49-.224-1.045-.336-1.664-.336-.907 0-1.696.203-2.368.608-.661.405-1.275.981-1.84 1.728V20zm-.16-9.824a9.684 9.684 0 011.088-1.104 6.63 6.63 0 011.264-.864 6.088 6.088 0 011.424-.56 6.22 6.22 0 011.632-.208c.928 0 1.765.181 2.512.544a5.257 5.257 0 011.936 1.6c.533.704.944 1.573 1.232 2.608.299 1.035.448 2.224.448 3.568 0 1.205-.165 2.325-.496 3.36-.32 1.024-.784 1.915-1.392 2.672a6.447 6.447 0 01-2.208 1.792c-.864.427-1.84.64-2.928.64-.97 0-1.803-.16-2.496-.48a5.99 5.99 0 01-1.856-1.344v7.056h-3.12V7.744h1.872c.437 0 .71.208.816.624l.272 1.808zM76.642.384V24h-3.136V.384h3.136zm18.664 7.36L86.282 28.72a1.316 1.316 0 01-.384.544c-.16.128-.394.192-.704.192h-2.32l2.976-6.48-6.672-15.232h2.72c.267 0 .475.064.624.192.15.128.256.272.32.432l4.128 9.76c.086.245.166.496.24.752.086.245.155.49.208.736.075-.256.155-.507.24-.752.086-.256.176-.507.272-.752l3.984-9.744c.075-.181.192-.33.352-.448a.897.897 0 01.544-.176h2.496zm.749 14.384c0-.288.053-.56.16-.816.107-.256.25-.48.432-.672.192-.192.416-.341.672-.448.256-.117.533-.176.832-.176.288 0 .56.059.816.176a2.062 2.062 0 011.12 1.12c.117.256.176.528.176.816 0 .299-.059.576-.176.832a2.062 2.062 0 01-1.12 1.12 2.1 2.1 0 01-.816.16 2.14 2.14 0 01-.832-.16 2.062 2.062 0 01-.672-.448 2.203 2.203 0 01-.432-.672 2.14 2.14 0 01-.16-.832z" fill="#616467"/></svg>