<svg width="96" height="30" fill="none" xmlns="http://www.w3.org/2000/svg"><path d="M11.964 17.404c0-.83-.293-1.464-.879-1.904-.586-.45-1.64-.918-3.164-1.406-1.524-.498-2.73-.987-3.618-1.465C1.88 11.32.67 9.558.67 7.34c0-1.153.322-2.178.967-3.076.654-.909 1.587-1.617 2.798-2.124 1.22-.508 2.587-.762 4.101-.762 1.524 0 2.881.278 4.072.835 1.192.547 2.115 1.323 2.769 2.329.664 1.006.996 2.148.996 3.428h-4.395c0-.977-.307-1.734-.922-2.27-.616-.548-1.48-.821-2.593-.821-1.074 0-1.91.23-2.505.688-.596.45-.894 1.045-.894 1.787 0 .694.347 1.275 1.04 1.744.704.468 1.734.908 3.091 1.318 2.5.752 4.322 1.685 5.464 2.798 1.143 1.113 1.714 2.5 1.714 4.16 0 1.846-.698 3.296-2.095 4.35-1.396 1.045-3.276 1.568-5.64 1.568-1.64 0-3.134-.298-4.482-.894-1.347-.605-2.378-1.43-3.09-2.475C.361 18.879.01 17.668.01 16.29h4.41c0 2.354 1.406 3.53 4.219 3.53 1.045 0 1.86-.21 2.446-.63.586-.43.879-1.025.879-1.787zm11.25-8.525c1.123-1.348 2.534-2.022 4.233-2.022 3.438 0 5.18 1.997 5.23 5.992V23h-4.234V12.966c0-.908-.195-1.577-.586-2.007-.39-.44-1.04-.66-1.948-.66-1.24 0-2.139.48-2.695 1.436V23H18.98V.5h4.233v8.379zm11.997 6.05c0-1.573.303-2.974.908-4.204.606-1.23 1.475-2.183 2.608-2.857 1.142-.674 2.465-1.01 3.97-1.01 2.138 0 3.881.654 5.229 1.962 1.357 1.309 2.114 3.086 2.27 5.332l.03 1.084c0 2.432-.68 4.385-2.036 5.86-1.358 1.465-3.18 2.197-5.464 2.197-2.286 0-4.112-.732-5.479-2.197-1.357-1.465-2.036-3.457-2.036-5.977v-.19zm4.233.307c0 1.504.283 2.657.85 3.457.566.791 1.377 1.187 2.432 1.187 1.025 0 1.826-.39 2.402-1.172.576-.791.864-2.05.864-3.78 0-1.474-.288-2.617-.864-3.427-.576-.81-1.387-1.216-2.432-1.216-1.035 0-1.836.405-2.402 1.216-.566.8-.85 2.046-.85 3.735zm27.657-.014c0 2.441-.557 4.4-1.67 5.874-1.104 1.465-2.598 2.197-4.483 2.197-1.601 0-2.895-.557-3.882-1.67v7.47h-4.233V7.15h3.926l.146 1.553c1.026-1.23 2.364-1.846 4.014-1.846 1.953 0 3.472.723 4.556 2.168 1.084 1.446 1.626 3.438 1.626 5.977v.22zm-4.234-.308c0-1.474-.264-2.612-.79-3.413-.518-.8-1.275-1.201-2.271-1.201-1.328 0-2.241.508-2.74 1.523v6.49c.518 1.044 1.44 1.567 2.769 1.567 2.021 0 3.032-1.655 3.032-4.966zM74.205 23h-4.248V.5h4.248V23zm9.419-5.991l2.93-9.859h4.54l-6.371 18.31-.352.836c-.947 2.07-2.51 3.105-4.687 3.105a6.66 6.66 0 01-1.875-.278v-3.208l.644.015c.8 0 1.397-.122 1.787-.366.4-.245.713-.65.938-1.216l.498-1.304L76.124 7.15h4.556l2.944 9.859zm6.9 3.91c0-.673.224-1.22.673-1.64.46-.42 1.03-.63 1.714-.63.694 0 1.265.21 1.714.63.459.42.689.967.689 1.64 0 .665-.225 1.207-.674 1.627-.45.41-1.026.615-1.729.615-.693 0-1.264-.205-1.714-.615-.449-.42-.674-.962-.674-1.626z" fill="#fff"/></svg>