<svg width="24" height="29" fill="none" xmlns="http://www.w3.org/2000/svg"><path d="M12 .579a4.608 4.608 0 014.604 4.43l.003.177h5.81a1.002 1.002 0 01.102 1.998l-.102.005h-.875l-1.364 18.085a3.406 3.406 0 01-3.396 3.15H7.218a3.405 3.405 0 01-3.396-3.15L2.457 7.19h-.874c-.518 0-.945-.394-.996-.899l-.005-.102c0-.519.394-.945.899-.997l.102-.005h5.81A4.607 4.607 0 0112 .58zm7.534 6.61H4.466L5.82 25.123a1.402 1.402 0 001.398 1.297h9.564c.733 0 1.343-.565 1.398-1.297L19.534 7.19zm-4.93 4.207a1 1 0 01.996.9l.006.102v8.814a1.002 1.002 0 01-1.998.102l-.006-.102v-8.814c0-.553.449-1.002 1.002-1.002zm-5.208 0c.518 0 .945.394.996.9l.005.102v8.814a1.002 1.002 0 01-1.998.102l-.005-.102v-8.814c0-.553.448-1.002 1.002-1.002zM12 2.582a2.604 2.604 0 00-2.6 2.456l-.004.148h5.208A2.604 2.604 0 0012 2.582z" fill="#211F1C"/></svg>